<?xml version="1.0" encoding="utf-8"?>
<!-- Generator: Adobe Illustrator 27.3.1, SVG Export Plug-In . SVG Version: 6.00 Build 0)  -->
<svg version="1.1" id="Layer_1" xmlns="http://www.w3.org/2000/svg" xmlns:xlink="http://www.w3.org/1999/xlink" x="0px" y="0px"
	 viewBox="0 0 16 16" style="enable-background:new 0 0 16 16;" xml:space="preserve">
<style type="text/css">
	.st0{fill:#20649B;}
</style>
<path class="st0" d="M10.84,7.16c-0.3-0.59-0.6-1.17-0.9-1.76C9.63,5.99,9.32,6.58,9.01,7.17c0.01,0,0.01,0,0.01,0
	c0.08,0,0.16,0,0.25,0c0.1,0,0.21,0,0.31,0c0.03,0,0.03,0,0.03,0.03c0,0.04,0,0.09,0,0.13c0,0.05,0,0.11,0,0.16
	C9.36,7.6,9.19,7.85,9.19,8.13l-0.04,5.18c0,0.43-0.35,0.78-0.78,0.78c-0.43,0-0.78-0.35-0.78-0.78l0.01-7.63
	c0-0.43,0.35-0.78,0.78-0.78c0.01,0,0.02,0,0.04,0h5.29c1.28,0,2.32-1.05,2.24-2.33c-0.07-1.15-1.03-2.06-2.19-2.06H2.28
	C1,0.52-0.03,1.57,0.05,2.85C0.12,3.99,1.07,4.9,2.24,4.9h0.93c0.27,0,0.51-0.15,0.64-0.37c0.07,0,0.15,0,0.22,0
	c0.04,0,0.09,0,0.13,0c0.03,0,0.03,0,0.03,0.03c0,0.1,0,0.21,0,0.31c0,0.08,0,0.16,0,0.25c0,0,0,0.01,0,0.01
	C4.78,4.82,5.36,4.52,5.96,4.2C5.37,3.9,4.78,3.6,4.2,3.3c0,0.2,0,0.4,0,0.6c-0.12,0-0.24,0-0.36,0C3.73,3.66,3.48,3.49,3.19,3.49
	H2.26c-0.38,0-0.73-0.27-0.79-0.65c-0.08-0.48,0.3-0.91,0.77-0.91h11.5c0.38,0,0.73,0.27,0.79,0.65c0.08,0.48-0.3,0.91-0.77,0.91
	l-5.35,0c-0.01,0-0.02,0-0.03,0c-1.21,0-2.19,0.98-2.19,2.19l-0.01,7.63c0,1.21,0.98,2.19,2.19,2.19c1.21,0,2.19-0.98,2.19-2.19
	l0.04-5.17c0-0.27-0.15-0.5-0.37-0.62c0-0.12,0-0.23,0-0.35C10.44,7.16,10.64,7.16,10.84,7.16z"/>
</svg>
