<?xml version="1.0" encoding="utf-8"?>
<!-- Generator: Adobe Illustrator 27.3.1, SVG Export Plug-In . SVG Version: 6.00 Build 0)  -->
<svg version="1.1" id="Layer_1" xmlns="http://www.w3.org/2000/svg" xmlns:xlink="http://www.w3.org/1999/xlink" x="0px" y="0px"
	 viewBox="0 0 178 61" style="enable-background:new 0 0 178 61;" xml:space="preserve">
<style type="text/css">
	.st0{fill:#ABABAB;}
</style>
<g>
	<polygon class="st0" points="83.81,46.51 83.81,27.48 91.46,27.48 91.46,22.5 70.33,22.5 70.33,27.48 77.98,27.48 77.98,46.51 	"/>
	<polygon class="st0" points="99.69,37.01 110.22,37.01 110.22,46.51 116.01,46.51 116.01,22.5 110.22,22.5 110.22,32 99.69,32 
		99.69,22.5 93.86,22.5 93.86,46.51 99.69,46.51 	"/>
	<path class="st0" d="M136.93,46.51h4.01l1.71-4.87h9.64l1.75,4.87h6.38l-9.4-24.01h-6.82l-7.42,19.03h-12.5v-4.53h10.94V32h-10.94
		v-4.53h12.65V22.5h-18.49v24.01h16.39H136.93z M147.46,27.85l3.22,8.85h-6.38L147.46,27.85z"/>
	<rect x="78.05" y="49.33" class="st0" width="1.39" height="8.44"/>
	<polygon class="st0" points="80.32,50.47 83.46,50.47 83.46,57.76 84.85,57.76 84.85,50.47 88,50.47 88,49.33 80.32,49.33 	"/>
	<path class="st0" d="M96.81,53.3c-0.44-0.13-1.01-0.26-1.7-0.38c-0.53-0.09-0.95-0.17-1.24-0.25c-0.3-0.08-0.55-0.2-0.75-0.37
		c-0.2-0.16-0.3-0.4-0.3-0.72c0-0.24,0.07-0.46,0.22-0.65c0.15-0.19,0.37-0.34,0.67-0.45c0.3-0.1,0.66-0.16,1.08-0.16
		c0.45,0,0.82,0.07,1.13,0.2c0.31,0.14,0.54,0.32,0.7,0.55c0.16,0.23,0.26,0.48,0.3,0.76h1.36c-0.03-0.53-0.19-0.99-0.47-1.39
		c-0.28-0.4-0.68-0.71-1.18-0.92c-0.5-0.22-1.12-0.33-1.83-0.33c-0.67,0-1.27,0.1-1.78,0.31c-0.51,0.2-0.91,0.49-1.18,0.86
		c-0.27,0.37-0.41,0.78-0.41,1.24c0,0.6,0.16,1.07,0.47,1.41c0.31,0.34,0.69,0.57,1.13,0.71c0.44,0.14,1.01,0.26,1.71,0.37
		c0.53,0.09,0.94,0.17,1.24,0.25c0.3,0.08,0.55,0.21,0.75,0.38c0.2,0.17,0.3,0.41,0.3,0.7c0,0.25-0.08,0.48-0.25,0.68
		c-0.16,0.2-0.41,0.36-0.73,0.47c-0.32,0.11-0.7,0.16-1.14,0.16c-0.68,0-1.21-0.14-1.59-0.43c-0.38-0.29-0.6-0.66-0.66-1.12h-1.38
		c0.07,0.83,0.41,1.48,1.03,1.96c0.62,0.48,1.48,0.72,2.58,0.72c0.71,0,1.33-0.1,1.86-0.31c0.53-0.21,0.94-0.5,1.23-0.87
		c0.29-0.37,0.43-0.8,0.43-1.29c0-0.6-0.16-1.07-0.47-1.41C97.63,53.66,97.25,53.43,96.81,53.3z"/>
	<path class="st0" d="M105.93,49.78c-0.69-0.38-1.47-0.57-2.33-0.57c-0.87,0-1.65,0.19-2.34,0.57c-0.69,0.38-1.24,0.9-1.63,1.56
		c-0.39,0.66-0.59,1.39-0.59,2.21s0.2,1.55,0.59,2.21c0.39,0.66,0.93,1.18,1.63,1.56c0.69,0.38,1.47,0.57,2.34,0.57
		c0.86,0,1.63-0.19,2.33-0.57c0.69-0.38,1.24-0.9,1.64-1.56c0.4-0.66,0.59-1.39,0.59-2.21s-0.2-1.55-0.59-2.21
		C107.17,50.68,106.63,50.16,105.93,49.78z M106.31,55.16c-0.27,0.49-0.65,0.88-1.12,1.16c-0.48,0.28-1.01,0.42-1.6,0.42
		c-0.58,0-1.11-0.14-1.58-0.42c-0.48-0.28-0.85-0.66-1.12-1.15c-0.27-0.49-0.4-1.03-0.4-1.62c0-0.59,0.13-1.12,0.4-1.61
		c0.27-0.49,0.64-0.88,1.12-1.16c0.48-0.28,1.01-0.42,1.6-0.42c0.58,0,1.11,0.14,1.58,0.42c0.48,0.28,0.85,0.66,1.12,1.15
		c0.27,0.49,0.41,1.03,0.41,1.62C106.72,54.13,106.59,54.67,106.31,55.16z"/>
	<polygon class="st0" points="110.44,49.33 109.05,49.33 109.05,57.76 115.23,57.76 115.23,56.62 110.44,56.62 	"/>
	<path class="st0" d="M121.73,54.35c0,0.47-0.11,0.88-0.32,1.24c-0.21,0.36-0.51,0.64-0.9,0.84c-0.38,0.2-0.82,0.3-1.31,0.3
		s-0.92-0.1-1.31-0.3c-0.38-0.2-0.68-0.48-0.9-0.84c-0.21-0.36-0.32-0.78-0.32-1.24V49.2h-1.39v5.16c0,0.67,0.17,1.28,0.5,1.81
		c0.33,0.53,0.8,0.95,1.39,1.25c0.59,0.3,1.27,0.45,2.03,0.45c0.75,0,1.42-0.15,2.02-0.45c0.6-0.3,1.07-0.72,1.4-1.25
		c0.34-0.53,0.5-1.14,0.5-1.81V49.2h-1.4V54.35z"/>
	<polygon class="st0" points="124,50.47 127.14,50.47 127.14,57.76 128.53,57.76 128.53,50.47 131.68,50.47 131.68,49.33 124,49.33 
			"/>
	<rect x="132.56" y="49.33" class="st0" width="1.39" height="8.44"/>
	<path class="st0" d="M141.72,49.78c-0.69-0.38-1.47-0.57-2.33-0.57c-0.87,0-1.65,0.19-2.34,0.57c-0.69,0.38-1.24,0.9-1.63,1.56
		c-0.39,0.66-0.59,1.39-0.59,2.21s0.2,1.55,0.59,2.21c0.39,0.66,0.93,1.18,1.63,1.56c0.69,0.38,1.48,0.57,2.34,0.57
		c0.86,0,1.64-0.19,2.33-0.57c0.69-0.38,1.24-0.9,1.64-1.56c0.4-0.66,0.59-1.39,0.59-2.21s-0.2-1.55-0.59-2.21
		C142.96,50.68,142.42,50.16,141.72,49.78z M142.1,55.16c-0.27,0.49-0.65,0.88-1.12,1.16c-0.48,0.28-1.01,0.42-1.6,0.42
		c-0.58,0-1.11-0.14-1.58-0.42c-0.48-0.28-0.85-0.66-1.12-1.15c-0.27-0.49-0.4-1.03-0.4-1.62c0-0.59,0.13-1.12,0.4-1.61
		s0.64-0.88,1.12-1.16c0.48-0.28,1.01-0.42,1.6-0.42c0.58,0,1.11,0.14,1.58,0.42c0.48,0.28,0.85,0.66,1.12,1.15
		c0.27,0.49,0.41,1.03,0.41,1.62C142.51,54.13,142.37,54.67,142.1,55.16z"/>
	<polygon class="st0" points="151.31,55.54 146.12,49.33 144.83,49.33 144.83,57.76 146.19,57.76 146.19,51.54 151.38,57.76 
		152.66,57.76 152.66,49.33 151.31,49.33 	"/>
	<path class="st0" d="M160.21,54c-0.32-0.34-0.69-0.57-1.13-0.7c-0.44-0.13-1.01-0.26-1.7-0.38c-0.53-0.09-0.95-0.17-1.24-0.25
		c-0.3-0.08-0.55-0.2-0.75-0.37c-0.2-0.16-0.3-0.4-0.3-0.72c0-0.24,0.07-0.46,0.22-0.65c0.15-0.19,0.37-0.34,0.67-0.45
		c0.3-0.1,0.66-0.16,1.08-0.16c0.45,0,0.82,0.07,1.13,0.2c0.31,0.14,0.54,0.32,0.7,0.55c0.16,0.23,0.26,0.48,0.3,0.76h1.36
		c-0.03-0.53-0.19-0.99-0.47-1.39c-0.28-0.4-0.68-0.71-1.18-0.92c-0.51-0.22-1.12-0.33-1.83-0.33c-0.67,0-1.27,0.1-1.78,0.31
		c-0.51,0.2-0.91,0.49-1.18,0.86c-0.27,0.37-0.41,0.78-0.41,1.24c0,0.6,0.16,1.07,0.47,1.41c0.31,0.34,0.69,0.57,1.13,0.71
		c0.44,0.14,1.01,0.26,1.71,0.37c0.53,0.09,0.94,0.17,1.24,0.25c0.3,0.08,0.55,0.21,0.74,0.38c0.2,0.17,0.3,0.41,0.3,0.7
		c0,0.25-0.08,0.48-0.25,0.68c-0.16,0.2-0.41,0.36-0.73,0.47c-0.32,0.11-0.7,0.16-1.14,0.16c-0.68,0-1.21-0.14-1.59-0.43
		c-0.38-0.29-0.6-0.66-0.66-1.12h-1.38c0.07,0.83,0.41,1.48,1.03,1.96c0.62,0.48,1.48,0.72,2.58,0.72c0.71,0,1.33-0.1,1.86-0.31
		s0.95-0.5,1.23-0.87s0.43-0.8,0.43-1.29C160.68,54.81,160.52,54.34,160.21,54z"/>
	<path class="st0" d="M60.96,27.06c-1.21-2.36-2.42-4.72-3.64-7.11c-1.26,2.39-2.52,4.76-3.77,7.14c0.03,0.01,0.04,0.01,0.05,0.01
		c0.33,0,0.66,0,0.99-0.01c0.42,0,0.84-0.01,1.27-0.01c0.14,0,0.14,0,0.14,0.14c0,0.18-0.01,0.35-0.01,0.53c0,0.22,0,0.43-0.01,0.65
		c-1,0.45-1.69,1.44-1.7,2.61l-0.15,20.92c0,1.73-1.41,3.14-3.14,3.14c-1.73,0-3.14-1.41-3.14-3.13l0.04-30.84
		c0-1.73,1.41-3.14,3.14-3.14c0.05,0,0.1,0,0.15-0.01h21.4c5.19,0,9.36-4.24,9.04-9.42c-0.29-4.63-4.15-8.32-8.85-8.32h-46.4
		c-5.19,0-9.36,4.24-9.04,9.42c0.29,4.63,4.15,8.32,8.85,8.32h3.75c1.09,0,2.07-0.6,2.59-1.49c0.3,0,0.6-0.01,0.9-0.01
		c0.18,0,0.35-0.01,0.53-0.01c0.13,0,0.14,0,0.14,0.14c0,0.42,0,0.84-0.01,1.27c0,0.33,0,0.66-0.01,0.99c0,0.01,0,0.02,0.01,0.05
		c2.38-1.26,4.75-2.51,7.14-3.77c-2.38-1.22-4.74-2.43-7.11-3.64c0,0.82-0.01,1.63-0.01,2.44c-0.49,0-0.96,0.01-1.44,0.01
		c-0.45-1.01-1.45-1.71-2.62-1.71h-3.76c-1.55,0-2.94-1.08-3.19-2.61c-0.32-1.96,1.19-3.66,3.09-3.66h46.5
		c1.55,0,2.94,1.08,3.19,2.61c0.32,1.96-1.19,3.66-3.1,3.66l-21.62,0.01c-0.04,0-0.08,0-0.12,0c-4.89,0-8.87,3.98-8.87,8.87
		l-0.04,30.84c0,4.89,3.98,8.87,8.87,8.87c4.89,0,8.87-3.98,8.87-8.87l0.15-20.91c0-1.09-0.61-2.03-1.51-2.51
		c0-0.47,0.01-0.95,0.01-1.42C59.33,27.07,60.14,27.07,60.96,27.06z"/>
</g>
</svg>
